<svg width="56" height="56" viewBox="0 0 56 56" fill="none" xmlns="http://www.w3.org/2000/svg">
<path d="M48.9773 55.9963H7.00275C6.07644 56.027 5.15385 55.8651 4.29332 55.5209C3.43279 55.1766 2.65305 54.6576 2.0034 53.9966C1.3474 53.3516 0.831299 52.5783 0.487251 51.7251C0.143202 50.8719 -0.0214146 49.9569 0.00366096 49.0373V7.00275C-0.0269744 6.07644 0.134933 5.15385 0.479144 4.29332C0.823355 3.43279 1.34238 2.65305 2.0034 2.0034C2.65305 1.34238 3.43279 0.823355 4.29332 0.479144C5.15385 0.134933 6.07644 -0.0269744 7.00275 0.00366096H48.9973C49.9236 -0.0269744 50.8462 0.134933 51.7067 0.479144C52.5672 0.823355 53.347 1.34238 53.9966 2.0034C54.6576 2.65305 55.1766 3.43279 55.5209 4.29332C55.8651 5.15385 56.027 6.07644 55.9963 7.00275V48.9973C55.9858 50.8537 55.2423 52.6309 53.9276 53.9418C52.613 55.2526 50.8338 55.9911 48.9773 55.9963ZM8.74252 15.7816C8.62253 15.7816 8.56254 15.7816 8.54254 15.9416V39.7785C8.53933 39.8055 8.54229 39.8329 8.5512 39.8586C8.56011 39.8844 8.57475 39.9077 8.594 39.927C8.61325 39.9462 8.63662 39.9609 8.66234 39.9698C8.68807 39.9787 8.71548 39.9816 8.74252 39.9784H17.6814C19.6074 40.0377 21.5338 39.8699 23.4206 39.4785C24.8783 39.0588 26.1557 38.1678 27.0531 36.9448C27.9504 35.7218 28.4171 34.2358 28.38 32.7194V32.6194C28.4815 31.4174 28.1865 30.2152 27.5401 29.1968C26.8936 28.1784 25.9313 27.3998 24.8004 26.9801C25.6861 26.5214 26.4243 25.822 26.9301 24.9623C27.436 24.1027 27.689 23.1178 27.66 22.1208C27.6513 21.6719 27.6112 21.2242 27.5401 20.7809C26.7202 17.4414 24.4005 15.7816 20.581 15.7816H8.74252ZM13.4619 20.001H19.2012C21.5608 20.001 22.7407 20.8609 22.7407 22.5807C22.7125 23.0073 22.6387 23.4296 22.5207 23.8405C22.1808 24.7804 20.721 25.2404 18.1813 25.2404H13.4619V20.001ZM13.4619 29.3198H19.3411C21.9208 29.3198 23.2006 30.2597 23.2006 32.1795V32.4794C23.2006 34.5991 22.0608 35.659 19.7811 35.659H13.4619V29.3198ZM38.5386 21.5208C37.2614 21.5127 35.996 21.7645 34.8191 22.2608C33.2237 22.9296 31.8758 24.0781 30.9621 25.5471C30.0484 27.0161 29.6143 28.7329 29.7198 30.4597V31.8795C29.6984 33.5879 30.1481 35.2692 31.0196 36.7389C31.8665 37.9389 32.9949 38.9128 34.3058 39.5752C35.6168 40.2376 37.0702 40.5683 38.5386 40.5384C40.451 40.617 42.3458 40.145 43.9979 39.1785C46.0976 37.4788 47.1375 36.0589 47.1375 34.9391C47.1375 34.7391 47.1375 34.6191 46.9775 34.6191H42.4581C42.106 35.2723 41.579 35.8146 40.9363 36.1854C40.2935 36.5563 39.5603 36.741 38.8186 36.7189C38.446 36.7039 38.0767 36.6434 37.7187 36.5389C36.7406 36.3726 35.8592 35.8487 35.2458 35.0689C34.6323 34.2892 34.3306 33.3092 34.3992 32.3194H47.2575C47.3775 32.3194 47.4175 32.3194 47.4175 32.1795V30.6796C47.419 30.0902 47.3722 29.5017 47.2775 28.9199C47.2023 27.8555 46.9149 26.817 46.4323 25.8654C45.9496 24.9138 45.2815 24.0684 44.4672 23.3789C43.6528 22.6895 42.7088 22.1699 41.6907 21.8508C40.6725 21.5317 39.6008 21.4195 38.5386 21.5208ZM33.0793 17.1214C33.0793 17.1214 32.9594 17.1214 32.9394 17.2814V19.4611C32.9394 19.6011 32.9394 19.6611 33.0793 19.6611H43.338C43.498 19.6611 43.578 19.6611 43.578 19.4611V17.2814C43.578 17.1814 43.578 17.1214 43.338 17.1214H33.0793ZM34.5991 29.1199C34.6369 28.7993 34.7107 28.484 34.8191 28.18C35.024 27.3667 35.5096 26.6519 36.1901 26.1617C36.8706 25.6714 37.7023 25.4372 38.5386 25.5003C38.9888 25.5014 39.4377 25.5483 39.8784 25.6403C40.6407 25.8477 41.313 26.3015 41.7904 26.9308C42.2679 27.5602 42.5237 28.3299 42.5181 29.1199H34.5991Z" fill="white"/>
</svg>
