<svg width="40" height="26" viewBox="0 0 40 26" fill="none" xmlns="http://www.w3.org/2000/svg">
<path fill-rule="evenodd" clip-rule="evenodd" d="M25.9737 4.23438H36.1497V1.32031H25.9737V4.23438ZM30.9897 10.0869C28.7197 10.0869 26.9957 11.4932 26.8297 14.0918H34.9737C34.4217 11.0078 33.0517 10.0869 30.9897 10.0869ZM31.3077 22.1396C33.4037 22.1396 34.9417 20.8156 35.2557 19.7002H39.6637C38.4037 23.7344 35.8017 26 31.1297 26C25.1677 26 21.8217 21.7596 21.8217 16.1328C21.8217 2.88183 40.9417 2.40676 39.9817 17.3701H26.8297C26.9577 20.4087 28.2117 22.1396 31.3077 22.1396ZM11.4717 21.5566C13.8777 21.5566 15.5617 20.6311 15.5617 18.1338C15.5617 15.5435 14.0737 14.4199 11.5757 14.4199H5.54772V21.5566H11.4717ZM11.1537 10.5244C13.1557 10.5244 14.5377 9.59251 14.5377 7.42773C14.5377 5.14729 12.9297 4.44336 10.7317 4.44336H5.54772V10.5244H11.1537ZM11.8597 0C16.6017 0 19.8977 1.5674 19.8977 6.44434C19.8977 8.85906 18.9277 10.6586 16.4777 11.8711C19.6137 12.8027 21.0977 15.2488 21.0977 18.4629C21.0977 23.565 17.0517 26 12.2117 26H0.0117188V0H11.8597Z" fill="white"/>
</svg>
