<svg width="56" height="56" viewBox="0 0 56 56" fill="none" xmlns="http://www.w3.org/2000/svg">
<rect width="56" height="56" rx="16" fill="#EFEFEF"/>
<path d="M28 56C28.2704 50.8072 28.4056 48.2107 28.9528 46.0169C31.0492 37.6118 37.6118 31.0492 46.0169 28.9528C48.2107 28.4056 50.8072 28.2704 56 28C50.8072 27.7296 48.2107 27.5944 46.0169 27.0472C37.6118 24.9508 31.0492 18.3882 28.9528 9.98314C28.4056 7.78926 28.2704 5.19284 28 0C27.7296 5.19284 27.5944 7.78926 27.0472 9.98314C24.9508 18.3882 18.3882 24.9508 9.98314 27.0472C7.78926 27.5944 5.19284 27.7296 0 28C5.19284 28.2704 7.78926 28.4056 9.98314 28.9528C18.3882 31.0492 24.9508 37.6118 27.0472 46.0169C27.5944 48.2107 27.7296 50.8072 28 56Z" fill="#AA7CFF"/>
</svg>
