<svg width="110" height="110" viewBox="0 0 110 110" fill="none" xmlns="http://www.w3.org/2000/svg">
<path d="M0 25.8824C0 16.8227 0 12.2928 1.76313 8.83251C3.31402 5.78871 5.78871 3.31402 8.83251 1.76313C12.2928 0 16.8227 0 25.8824 0H84.1176C93.1773 0 97.7072 0 101.167 1.76313C104.211 3.31402 106.686 5.78871 108.237 8.83251C110 12.2928 110 16.8227 110 25.8824V84.1176C110 93.1773 110 97.7072 108.237 101.167C106.686 104.211 104.211 106.686 101.167 108.237C97.7072 110 93.1773 110 84.1176 110H25.8824C16.8227 110 12.2928 110 8.83251 108.237C5.78871 106.686 3.31402 104.211 1.76313 101.167C0 97.7072 0 93.1773 0 84.1176V25.8824Z" fill="white"/>
<path d="M56.0467 68.506C56.0149 68.4842 55.9771 68.4728 55.9385 68.4732C55.8999 68.4736 55.8625 68.4859 55.8313 68.5084C55.5191 68.7315 55.1456 68.8776 54.8487 69.092C54.5718 69.2926 54.2953 69.4933 54.0194 69.694C51.7439 71.3513 50.3515 73.5579 49.8422 76.3138C49.3751 78.8415 49.4485 81.4149 49.8115 83.9386C50.5924 89.36 52.1365 94.6987 53.8678 99.9242C54.0638 100.518 54.3389 101.107 54.5172 101.719C54.6807 102.278 54.8853 102.846 55.1311 103.423C55.1962 103.577 55.2179 103.742 55.1964 103.918C55.1927 103.946 55.1798 103.952 55.1577 103.935C55.0875 103.883 55.0141 103.833 54.9714 103.756C54.7976 103.442 54.59 103.152 54.3486 102.888C54.1765 102.699 54.0434 102.531 53.9492 102.384C53.2732 101.327 52.5157 100.283 51.8703 99.2564C51.1464 98.1048 50.4217 96.954 49.6962 95.804C49.0637 94.8012 48.1642 93.2338 46.9977 91.1018C46.9186 90.9579 46.764 90.6502 46.5338 90.1787C46.3305 89.7621 46.0853 89.368 45.8941 88.957C45.6375 88.4056 45.3148 87.8413 45.0817 87.334C44.4573 85.979 43.8176 84.6209 43.2738 83.2314C42.721 81.8171 42.3356 80.795 42.1178 80.1651C41.8941 79.5176 41.6133 78.6106 41.2756 77.444C40.7294 75.5561 40.3236 73.62 40.0203 71.6782C39.8525 70.6082 39.8162 69.7566 39.7517 68.4482C39.6651 66.6876 39.682 65.1422 39.8025 63.8118C40.0413 61.1731 40.6267 58.571 41.5587 56.0056C41.7241 55.5489 41.6225 55.1869 41.3312 54.7775C41.0618 54.3986 40.7891 54.023 40.5132 53.6505C39.0821 51.7166 37.2301 50.4269 34.9573 49.7815C31.7401 48.8673 28.3438 49.1875 25.0281 49.682C24.4882 49.7623 23.9581 49.8527 23.4381 49.9533C21.2728 50.3729 19.4262 50.7967 17.8983 51.2248C16.7017 51.5603 15.5047 51.894 14.3076 52.2257C14.0018 52.3108 13.6049 52.4698 13.2556 52.5717C11.5378 53.0715 9.83884 53.6283 8.1587 54.2421C7.86425 54.3497 7.4988 54.4324 7.17692 54.5552C6.81067 54.6948 6.49766 54.7566 6.13786 54.8377C6.12745 54.8401 6.11659 54.84 6.10627 54.8372C6.09595 54.8344 6.08648 54.8291 6.07872 54.8218C6.07096 54.8145 6.06515 54.8053 6.06181 54.7952C6.05848 54.7851 6.05772 54.7743 6.05961 54.7639C6.10801 54.4958 6.49604 54.4083 6.70418 54.3063C7.19305 54.0655 7.68596 53.6176 8.0264 53.3888C10.5627 51.6823 13.5339 49.7607 16.3833 48.1657C16.9749 47.835 17.4428 47.5712 17.787 47.3743C19.3246 46.4953 20.742 45.809 22.2393 45.0641C23.6051 44.385 25.0306 43.8055 26.4246 43.1786C26.5881 43.1047 26.8637 43.0017 27.2515 42.8695C27.7323 42.705 28.2575 42.4602 28.7786 42.2916C29.5506 42.0404 30.2194 41.7337 30.9681 41.5427C31.7594 41.3412 32.5137 41.0153 33.3076 40.8371C34.1154 40.6562 34.9213 40.4668 35.7253 40.2688C36.1308 40.1687 36.5546 40.0885 36.9967 40.028C37.9341 39.9004 38.9651 39.7045 39.8001 39.6106C44.8125 39.0476 49.7207 39.6355 54.5244 41.3741C54.9907 41.5427 55.1222 41.2401 55.4522 41.0506C56.7499 40.3052 57.8113 39.4236 58.6363 38.4058C58.7896 38.2169 59.0432 37.8503 59.397 37.3061C59.6256 36.9556 59.8174 36.6018 59.9722 36.2449C60.2385 35.6333 60.4283 35.1297 60.5418 34.7342C61.1581 32.5798 61.2275 30.2327 60.9992 27.7299C60.8766 26.3854 60.666 24.7937 60.3853 23.3496C59.9464 21.0946 59.5175 19.2372 59.0986 17.7773C58.8926 17.0597 58.6898 16.3408 58.4903 15.6205C57.9966 13.8393 57.3778 12.0975 56.8728 10.3203C56.7679 9.95025 56.5808 9.56014 56.4735 9.24468C56.2428 8.56614 56.0034 7.89054 55.7555 7.21788C55.6498 6.93052 55.5933 6.61987 55.5111 6.31886C55.4637 6.14869 55.4965 6.06066 55.6095 6.05478C55.6248 6.05407 55.64 6.05758 55.6536 6.06494C55.6671 6.0723 55.6783 6.08322 55.6861 6.09652C55.8539 6.37693 56.0134 6.64449 56.1645 6.89921C56.3613 7.23153 56.659 7.551 56.9059 7.91863C58.8044 10.7457 60.307 13.1027 61.4139 14.9896C62.6223 17.0482 63.4081 18.4345 63.7711 19.1483C64.2939 20.1774 64.818 21.2059 65.3434 22.2339C65.7866 23.1013 66.3975 24.4579 67.1763 26.3035C67.8168 27.8228 68.4372 29.5432 69.0374 31.4649C69.7774 33.8344 70.3163 36.2489 70.6541 38.7084C71.147 42.3069 71.1002 45.7416 70.3653 49.2943C70.2507 49.8466 70.1571 50.4044 70.0111 50.9342C69.7003 52.0633 69.3561 53.182 68.9785 54.2903C68.9619 54.3395 68.9699 54.3992 69.0027 54.4693C69.3846 55.2773 69.7051 55.8454 69.9643 56.1734C70.3467 56.6566 70.7372 57.1687 71.1623 57.5789C72.3896 58.7632 73.7941 59.5964 75.3759 60.0785C76.6085 60.4542 78.059 60.7014 79.4095 60.7423C81.4123 60.8023 83.403 60.6583 85.3817 60.3105C86.5926 60.0978 87.8228 59.9284 89.0176 59.6394C89.671 59.4816 90.1941 59.3601 90.5867 59.275C91.2444 59.1321 91.8973 58.9692 92.5454 58.7862C92.8191 58.7086 93.3153 58.5751 94.0338 58.3856C94.6961 58.2114 95.3463 57.9819 96.0062 57.8101C96.9001 57.5773 97.8577 57.2305 98.6491 56.9962C99.7656 56.6644 100.871 56.2975 101.964 55.8957C102.54 55.6846 103.33 55.4943 103.987 55.1484C104.138 55.0681 104.279 55.0472 104.447 55.0199C104.462 55.0174 104.477 55.0188 104.491 55.024C104.505 55.0291 104.517 55.0379 104.527 55.0494C104.536 55.0609 104.543 55.0747 104.545 55.0894C104.547 55.1041 104.546 55.1192 104.541 55.1331C104.517 55.1952 104.467 55.249 104.391 55.2944C103.905 55.5818 103.486 55.9832 103.05 56.2713C102.718 56.4897 102.227 56.8225 101.577 57.2699C100.552 57.9736 98.7854 59.0874 96.2781 60.6115C95.8183 60.8908 95.3547 61.1619 94.8873 61.4246C93.9628 61.9437 93.0361 62.459 92.1073 62.9706C89.6366 64.3309 87.0992 65.5537 84.4951 66.6389C80.4792 68.3117 76.5351 69.5037 72.2909 70.1547C71.3901 70.2928 70.543 70.3824 69.7498 70.4236C68.1288 70.5076 66.5078 70.5165 64.8868 70.4501C63.0152 70.3739 61.1033 70.0022 59.2833 69.568C58.8708 69.4695 57.9003 69.1768 56.3718 68.6898C56.2532 68.6521 56.1443 68.5734 56.0467 68.506Z" fill="#040707"/>
</svg>
