<svg width="100" height="100" viewBox="0 0 100 100" fill="none" xmlns="http://www.w3.org/2000/svg">
<path d="M50 100L50.5144 90.1228C51.4464 72.2243 51.9124 63.2751 57.5938 57.5938C63.2751 51.9124 72.2243 51.4464 90.1228 50.5144L100 50L90.1228 49.4856C72.2243 48.5536 63.2751 48.0876 57.5938 42.4062C51.9124 36.7249 51.4464 27.7757 50.5144 9.87719L50 0L49.4856 9.87718C48.5536 27.7757 48.0876 36.7249 42.4062 42.4062C36.7249 48.0876 27.7757 48.5536 9.87719 49.4856L0 50L9.87718 50.5144C27.7757 51.4464 36.7249 51.9124 42.4062 57.5938C48.0876 63.2751 48.5536 72.2243 49.4856 90.1228L50 100Z" fill="#AA7CFF"/>
</svg>
