<svg width="34" height="39" viewBox="0 0 34 39" fill="none" xmlns="http://www.w3.org/2000/svg">
<path fill-rule="evenodd" clip-rule="evenodd" d="M11.6667 0.667969C11.2246 0.667969 10.8007 0.843569 10.4881 1.15612L0.48815 11.1561C0.1756 11.4687 0 11.8926 0 12.3346V32.3346C0 35.0961 2.23858 37.3346 5 37.3346H6.66667C7.58713 37.3346 8.33333 36.5885 8.33333 35.668C8.33333 34.7475 7.58713 34.0013 6.66667 34.0013H5C4.07953 34.0013 3.33333 33.2551 3.33333 32.3346V14.0013H11.6667C12.5872 14.0013 13.3333 13.2551 13.3333 12.3346V4.0013H25C25.9205 4.0013 26.6667 4.7475 26.6667 5.66797V17.3346C26.6667 18.2551 27.4128 19.0013 28.3333 19.0013C29.2538 19.0013 30 18.2551 30 17.3346V5.66797C30 2.90655 27.7615 0.667969 25 0.667969H11.6667ZM10 10.668H5.69035L10 6.35832V10.668ZM12.1797 38.2726C12.4428 38.5971 12.8253 38.8633 13.3077 38.9616C13.7593 39.054 14.1538 38.9696 14.4272 38.87C14.9302 38.6865 15.326 38.3405 15.5842 38.0856C15.9902 37.6855 16.4152 37.1426 16.8382 36.5295C18.687 35.8916 21.2852 35.3046 23.8117 34.935C25.2162 34.7293 26.5275 34.6018 27.6315 34.5585C28.0688 35.0733 28.4667 35.517 28.798 35.8521C29.0053 36.0618 29.2358 36.2798 29.4613 36.4465C29.563 36.5216 29.7532 36.6546 29.9983 36.7501C30.1258 36.7998 30.9635 37.1196 31.7373 36.4961C32.1927 36.1293 32.6142 35.7186 32.9073 35.2555C33.202 34.7901 33.4798 34.0798 33.2485 33.2721C33.0218 32.4815 32.4313 32.0381 31.9967 31.8093C31.5532 31.576 31.0548 31.446 30.5977 31.3658C30.1833 31.2931 29.7147 31.2476 29.2055 31.2253C28.1737 29.9371 26.9675 28.335 25.8217 26.701C24.8167 25.268 23.8797 23.8413 23.1517 22.5991C23.2265 22.2786 23.289 21.9706 23.3375 21.678C23.4205 21.1766 23.4707 20.6746 23.4597 20.2031C23.4492 19.7508 23.3807 19.2061 23.1333 18.6975C22.859 18.1338 22.36 17.6206 21.6137 17.4196C20.944 17.2393 20.3055 17.3745 19.8157 17.5556C19.0598 17.8353 18.6455 18.4556 18.5023 19.0615C18.3813 19.5741 18.4468 20.0691 18.5227 20.4228C18.6793 21.1538 19.0448 21.994 19.4658 22.8168C19.5033 22.89 19.5418 22.9641 19.5812 23.0388C19.1838 24.3466 18.5963 25.8893 17.8987 27.4845C16.876 29.8228 15.6758 32.1406 14.6422 33.798C13.9365 34.0936 13.2853 34.432 12.791 34.8206C12.4543 35.0855 12.0032 35.5163 11.7873 36.146C11.522 36.9203 11.7102 37.6936 12.1797 38.2726ZM23.329 31.6366C21.9725 31.8351 20.5742 32.0956 19.2497 32.4C19.8402 31.2551 20.4215 30.0348 20.9527 28.8203C21.2543 28.1305 21.5448 27.4315 21.8142 26.7398C22.2267 27.3638 22.657 27.994 23.0925 28.6148C23.7635 29.5715 24.4557 30.5196 25.1265 31.4075C24.531 31.4716 23.9278 31.5491 23.329 31.6366ZM21.7682 19.6416C21.768 19.6395 21.7678 19.6385 21.7677 19.6385C21.7677 19.6383 21.7678 19.641 21.7683 19.6466C21.7683 19.6446 21.7682 19.643 21.7682 19.6416Z" fill="white"/>
</svg>
