<svg width="1920" height="646" viewBox="0 0 1920 646" fill="none" xmlns="http://www.w3.org/2000/svg">
<circle cx="960.5" cy="1137.5" r="1137.5" fill="white"/>
<g style="mix-blend-mode:difference">
<path d="M54.1525 298.842V390.264H193.624V298.842H234.87V527.609H193.624V425.132H54.1525V527.609H12.9064V298.842H54.1525ZM531.253 421.73H325.023C325.023 466.378 357.764 495.718 406.664 495.718C442.808 495.718 470.022 481.686 479.376 456.598H527.426C511.268 505.923 467.47 533.988 406.664 533.988C329.7 533.988 281.225 487.214 281.225 413.651C281.225 339.663 330.125 291.614 406.664 291.614C484.904 291.614 531.253 337.537 531.253 413.651V421.73ZM325.873 392.39H487.03C480.652 353.695 450.887 329.883 406.664 329.883C362.867 329.883 332.676 353.27 325.873 392.39ZM618.894 298.842V477.009L758.366 298.842H804.289V527.609H763.043V349.869L623.146 527.609H577.648V298.842H618.894ZM619.745 204.869H643.557C644.833 224.855 664.818 241.438 693.307 241.438C722.222 241.438 742.633 224.855 743.908 204.869H768.146C763.893 248.242 739.656 268.652 693.733 268.652C648.234 268.652 623.997 248.242 619.745 204.869ZM838.203 298.842H1065.69V333.71H972.572V527.609H931.326V333.71H838.203V298.842ZM1140.87 298.842V333.285C1160 307.772 1190.62 291.614 1229.31 291.614C1301.6 291.614 1351.77 342.215 1351.77 413.651C1351.77 484.662 1301.6 533.988 1228.89 533.988C1192.32 533.988 1164.25 520.806 1140.87 494.017V608.826H1099.62V298.842H1140.87ZM1224.63 329.883C1172.76 329.883 1140.87 362.625 1140.87 413.651C1140.87 464.252 1172.76 495.718 1224.63 495.718C1276.51 495.718 1307.98 464.677 1307.98 413.651C1307.98 362.2 1276.51 329.883 1224.63 329.883ZM1511.29 291.614C1589.96 291.614 1638.86 340.089 1638.86 413.651C1638.86 487.214 1589.96 533.988 1511.29 533.988C1432.63 533.988 1383.3 487.214 1383.3 413.651C1383.3 340.089 1432.63 291.614 1511.29 291.614ZM1511.29 329.883C1458.99 329.883 1427.1 360.924 1427.1 412.801C1427.1 464.677 1458.99 495.718 1511.29 495.718C1563.59 495.718 1595.06 464.677 1595.06 412.801C1595.06 360.924 1563.59 329.883 1511.29 329.883ZM1726.37 298.842V390.264H1865.84V298.842H1907.09V527.609H1865.84V425.132H1726.37V527.609H1685.12V298.842H1726.37Z" fill="white"/>
</g>
<path d="M1512 482C1512.66 469.389 1512.99 463.083 1514.31 457.755C1519.41 437.343 1535.34 421.405 1555.76 416.314C1561.08 414.985 1567.39 414.657 1580 414C1567.39 413.343 1561.08 413.015 1555.76 411.686C1535.34 406.595 1519.41 390.657 1514.31 370.245C1512.99 364.917 1512.66 358.611 1512 346C1511.34 358.611 1511.01 364.917 1509.69 370.245C1504.59 390.657 1488.66 406.595 1468.24 411.686C1462.92 413.015 1456.61 413.343 1444 414C1456.61 414.657 1462.92 414.985 1468.24 416.314C1488.66 421.405 1504.59 437.343 1509.69 457.755C1511.01 463.083 1511.34 469.389 1512 482Z" fill="#AA7CFF"/>
</svg>
