<svg width="263" height="73" viewBox="0 0 263 73" fill="none" xmlns="http://www.w3.org/2000/svg">
<path d="M45.0426 0.844723C48.6044 0.844723 51.8439 1.72017 54.761 3.47106C57.678 5.19124 60.0117 7.52577 61.7619 10.4746C63.5121 13.3928 64.3872 16.6335 64.3872 20.1967C64.3872 23.7599 63.5121 27.0006 61.7619 29.9188C60.0117 32.8369 57.678 35.1715 54.761 36.9224C51.8439 38.6733 48.6044 39.5487 45.0426 39.5487H30.9486V73H25.6979V34.296H45.0426C48.9422 34.296 52.2584 32.9291 54.9912 30.1952C57.7548 27.4307 59.1365 24.0978 59.1365 20.1967C59.1365 16.2956 57.7548 12.9628 54.9912 10.1982C52.2584 7.43361 48.9422 6.05133 45.0426 6.05133H25.6979V0.844723H45.0426Z" fill="white"/>
<path d="M112.613 67.7934V73H73.9232V0.844723H79.1739V67.7934H112.613Z" fill="white"/>
<path d="M144.349 0.844723L169.405 73H163.878L144.349 16.7871L124.82 73H119.293L144.349 0.844723Z" fill="white"/>
<path d="M212.149 6.05133C206.499 6.05133 201.341 7.44897 196.674 10.2443C192.006 13.0088 188.275 16.7256 185.481 21.3947C182.718 26.0637 181.336 31.2396 181.336 36.9224C181.336 42.6051 182.718 47.781 185.481 52.45C188.275 57.1191 192.006 60.8513 196.674 63.6465C201.341 66.4111 206.499 67.7934 212.149 67.7934H214.775V73H212.149C207.328 73 202.723 72.0938 198.332 70.2815C193.971 68.4692 190.072 65.8582 186.633 62.4486C183.224 59.0082 180.614 55.1071 178.803 50.7452C176.991 46.3526 176.085 41.745 176.085 36.9224C176.085 32.0997 176.991 27.5075 178.803 23.1456C180.614 18.753 183.224 14.8365 186.633 11.3962C190.072 7.98653 193.971 5.37555 198.332 3.56322C202.723 1.75089 207.328 0.844723 212.149 0.844723H214.775V6.05133H212.149Z" fill="white"/>
<path d="M263 67.7934V73H224.311V0.844723H263V6.05133H229.561V67.7934H263Z" fill="white"/>
<path d="M9.89931 72.1553H4.64861V5.22217V0H9.89931V72.1553Z" fill="white"/>
<path d="M4.64861 5.22217V0H0V5.22217H4.64861Z" fill="white"/>
</svg>
