<svg width="116" height="116" viewBox="0 0 116 116" fill="none" xmlns="http://www.w3.org/2000/svg">
<rect width="116" height="116" rx="20" fill="white"/>
<path d="M27.8465 99.069C26.7005 99.069 25.6453 98.8803 24.681 98.503C23.7167 98.1257 22.8782 97.6016 22.1654 96.9308C21.4527 96.246 20.9007 95.4494 20.5093 94.541C20.118 93.6186 19.9224 92.6123 19.9224 91.5223C19.9224 90.4322 20.118 89.4329 20.5093 88.5245C20.9007 87.6021 21.4527 86.8055 22.1654 86.1347C22.8782 85.4499 23.7167 84.9189 24.681 84.5415C25.6453 84.1642 26.6935 83.9755 27.8255 83.9755C28.9715 83.9755 30.0197 84.1642 30.97 84.5415C31.9343 84.9189 32.7728 85.4429 33.4856 86.1138C34.1983 86.7846 34.7503 87.5812 35.1417 88.5036C35.533 89.4259 35.7286 90.4322 35.7286 91.5223C35.7286 92.6123 35.533 93.6186 35.1417 94.541C34.7503 95.4633 34.1983 96.2599 33.4856 96.9308C32.7728 97.6016 31.9343 98.1257 30.97 98.503C30.0197 98.8803 28.9785 99.069 27.8465 99.069ZM32.6261 102.067C32.109 102.067 31.6059 102.004 31.1167 101.878C30.6416 101.766 30.1664 101.571 29.6912 101.291C29.23 101.026 28.7479 100.669 28.2448 100.222C27.7417 99.7887 27.1896 99.2507 26.5887 98.6078L29.4816 97.8531C29.8729 98.3702 30.2433 98.7825 30.5926 99.09C30.956 99.4114 31.3054 99.642 31.6408 99.7818C31.9762 99.9215 32.3256 99.9914 32.689 99.9914C33.6533 99.9914 34.4918 99.6001 35.2045 98.8174L36.4623 100.327C35.4841 101.487 34.2053 102.067 32.6261 102.067ZM27.8255 96.6792C28.5662 96.6792 29.251 96.5534 29.8799 96.3019C30.5088 96.0503 31.0538 95.6939 31.515 95.2327C31.9762 94.7576 32.3326 94.2055 32.5841 93.5767C32.8497 92.9478 32.9825 92.263 32.9825 91.5223C32.9825 90.7676 32.8497 90.0828 32.5841 89.4679C32.3326 88.839 31.9762 88.2939 31.515 87.8327C31.0538 87.3576 30.5088 86.9942 29.8799 86.7426C29.251 86.4911 28.5662 86.3653 27.8255 86.3653C27.0848 86.3653 26.4 86.4911 25.7711 86.7426C25.1422 86.9942 24.5972 87.3576 24.136 87.8327C23.6748 88.2939 23.3114 88.839 23.0459 89.4679C22.7943 90.0828 22.6686 90.7676 22.6686 91.5223C22.6686 92.263 22.7943 92.9478 23.0459 93.5767C23.3114 94.2055 23.6748 94.7576 24.136 95.2327C24.5972 95.6939 25.1422 96.0503 25.7711 96.3019C26.4 96.5534 27.0848 96.6792 27.8255 96.6792ZM45.2626 98.8594V96.5954L45.1159 96.1132V92.1512C45.1159 91.3825 44.8853 90.7885 44.4241 90.3693C43.9629 89.936 43.2641 89.7194 42.3278 89.7194C41.6989 89.7194 41.077 89.8173 40.4621 90.0129C39.8611 90.2086 39.351 90.4811 38.9317 90.8305L37.9045 88.9228C38.5055 88.4616 39.2182 88.1192 40.0428 87.8956C40.8813 87.658 41.7478 87.5393 42.6422 87.5393C44.2634 87.5393 45.5142 87.9306 46.3946 88.7132C47.2891 89.4818 47.7363 90.6767 47.7363 92.2979V98.8594H45.2626ZM41.7408 99.0061C40.9023 99.0061 40.1686 98.8664 39.5397 98.5869C38.9108 98.2934 38.4216 97.8951 38.0722 97.392C37.7368 96.8749 37.5691 96.2949 37.5691 95.652C37.5691 95.0231 37.7159 94.4571 38.0094 93.954C38.3168 93.4509 38.8129 93.0526 39.4977 92.7591C40.1825 92.4656 41.0909 92.3189 42.223 92.3189H45.4723V94.0588H42.4116C41.5172 94.0588 40.9163 94.2055 40.6088 94.499C40.3013 94.7785 40.1476 95.1279 40.1476 95.5472C40.1476 96.0224 40.3363 96.3997 40.7136 96.6792C41.0909 96.9587 41.615 97.0985 42.2858 97.0985C42.9287 97.0985 43.5017 96.9517 44.0048 96.6582C44.5219 96.3648 44.8923 95.9315 45.1159 95.3585L45.5561 96.9308C45.3045 97.5876 44.8503 98.0977 44.1935 98.4611C43.5506 98.8244 42.7331 99.0061 41.7408 99.0061ZM51.8169 103.073C51.2719 103.073 50.7268 102.982 50.1818 102.8C49.6367 102.619 49.1825 102.367 48.8192 102.046L49.8673 100.117C50.1329 100.355 50.4333 100.543 50.7687 100.683C51.1041 100.823 51.4465 100.893 51.7959 100.893C52.2711 100.893 52.6554 100.774 52.9489 100.536C53.2424 100.299 53.5149 99.9005 53.7665 99.3415L54.4163 97.8741L54.626 97.5597L58.8605 87.665H61.3761L56.1353 99.7608C55.7859 100.599 55.3946 101.263 54.9614 101.752C54.5421 102.241 54.0669 102.584 53.5359 102.779C53.0188 102.975 52.4458 103.073 51.8169 103.073ZM54.1228 99.2577L49.0707 87.665H51.7959L55.9047 97.3291L54.1228 99.2577ZM67.7515 99.0061C66.8012 99.0061 65.9627 98.8314 65.236 98.482C64.5092 98.1187 63.9432 97.5736 63.5379 96.8469C63.1326 96.1062 62.93 95.1768 62.93 94.0588V87.665H65.5504V93.7024C65.5504 94.7087 65.774 95.4633 66.2212 95.9665C66.6824 96.4556 67.3323 96.7002 68.1708 96.7002C68.7857 96.7002 69.3168 96.5744 69.764 96.3228C70.2252 96.0713 70.5816 95.6939 70.8331 95.1908C71.0987 94.6877 71.2314 94.0658 71.2314 93.3251V87.665H73.8518V98.8594H71.3572V95.8407L71.7974 96.7631C71.4201 97.4898 70.8681 98.0488 70.1413 98.4401C69.4146 98.8174 68.618 99.0061 67.7515 99.0061ZM91.4119 87.5393C92.3064 87.5393 93.096 87.7139 93.7808 88.0633C94.4796 88.4127 95.0246 88.9508 95.4159 89.6775C95.8072 90.3902 96.0029 91.3126 96.0029 92.4446V98.8594H93.3825V92.78C93.3825 91.7878 93.1659 91.0471 92.7326 90.558C92.2994 90.0688 91.6775 89.8242 90.8669 89.8242C90.2939 89.8242 89.7838 89.95 89.3366 90.2016C88.9033 90.4531 88.561 90.8235 88.3094 91.3126C88.0718 91.8018 87.953 92.4237 87.953 93.1783V98.8594H85.3326V92.78C85.3326 91.7878 85.116 91.0471 84.6828 90.558C84.2495 90.0688 83.6276 89.8242 82.817 89.8242C82.244 89.8242 81.7339 89.95 81.2867 90.2016C80.8535 90.4531 80.5111 90.8235 80.2595 91.3126C80.0219 91.8018 79.9032 92.4237 79.9032 93.1783V98.8594H77.2828V87.665H79.7774V90.6418L79.3371 89.7613C79.7145 89.0346 80.2595 88.4826 80.9723 88.1053C81.699 87.7279 82.5236 87.5393 83.4459 87.5393C84.4941 87.5393 85.4025 87.7978 86.1711 88.3149C86.9538 88.832 87.4709 89.6146 87.7224 90.6628L86.6952 90.3064C87.0586 89.4679 87.6595 88.797 88.4981 88.2939C89.3366 87.7908 90.3079 87.5393 91.4119 87.5393Z" fill="#708ED7"/>
<g clip-path="url(#clip0_548_586)">
<path d="M54.1557 17.3411C56.2531 15.549 59.3639 15.5535 61.4561 17.3516L84.8939 37.4946C86.5176 38.89 87.45 40.9128 87.45 43.04V73.5922L68.8719 73.5903V62.4453C68.8719 56.429 64.1055 51.5259 58.1429 51.3061L57.725 51.2984C51.5688 51.2984 46.5781 56.2891 46.5781 62.4453V73.5903L28 73.5922V43.0496C28 40.915 28.9389 38.8859 30.5725 37.4902L54.1557 17.3411ZM57.725 30.8625C53.6208 30.8625 50.2938 34.1896 50.2938 38.2938C50.2938 42.3979 53.6208 45.725 57.725 45.725C61.8292 45.725 65.1562 42.3979 65.1562 38.2938C65.1562 34.1896 61.8292 30.8625 57.725 30.8625Z" fill="#708ED7"/>
</g>
<defs>
<clipPath id="clip0_548_586">
<rect x="27.5508" y="14.5" width="59.45" height="59.45" fill="white"/>
</clipPath>
</defs>
</svg>
