<svg width="56" height="56" viewBox="0 0 56 56" fill="none" xmlns="http://www.w3.org/2000/svg">
<path fill-rule="evenodd" clip-rule="evenodd" d="M7 0C3.13401 0 0 3.13401 0 7V49C0 52.866 3.13401 56 7 56H49C52.866 56 56 52.866 56 49V7C56 3.13401 52.866 0 49 0H7ZM47.3617 12.3914L40.7823 44.0389C40.6273 44.7861 39.7511 45.1247 39.1329 44.6754L30.1514 38.1547C29.6062 37.7588 28.8626 37.7798 28.3407 38.2054L23.361 42.2646C22.7831 42.7372 21.9122 42.4738 21.691 41.7621L19.2528 33.921C18.6097 31.8527 17.0453 30.1986 15.0161 29.4413L9.29994 27.3079C8.39249 26.968 8.38474 25.6869 9.2896 25.3383L45.952 11.195C46.7292 10.8944 47.5311 11.5753 47.3617 12.3914Z" fill="white"/>
<path fill-rule="evenodd" clip-rule="evenodd" d="M38.5915 18.1151L21.1325 28.868C20.4634 29.2809 20.1484 30.089 20.3643 30.8456L22.2519 37.4783C22.3862 37.9482 23.068 37.9002 23.1334 37.4147L23.624 33.7774C23.7167 33.0926 24.0432 32.4613 24.5498 31.9901L38.9583 18.5966C39.228 18.3467 38.9051 17.9225 38.5915 18.1151Z" fill="white"/>
</svg>
