<svg width="56" height="56" viewBox="0 0 56 56" fill="none" xmlns="http://www.w3.org/2000/svg">
<path d="M28.0258 11.7109C19.0707 11.7109 11.7852 18.9965 11.7852 27.9516C11.7852 31.0718 12.672 34.1019 14.3495 36.7142L14.7527 37.342L13.1731 42.9524L18.9777 41.4582L19.5763 41.8238C22.1143 43.3732 25.0361 44.1922 28.0258 44.1922C36.9809 44.1922 44.2663 36.9066 44.2663 27.9516C44.2663 18.9965 36.9809 11.7109 28.0258 11.7109ZM37.9847 32.943L37.782 33.8895C37.5535 34.9573 36.9193 35.9019 35.9993 36.4903C34.8377 37.2334 33.3321 37.5982 31.4184 37.057C25.4792 35.3777 22.1204 31.4455 20.3183 28.9879C18.516 26.5303 17.8198 24.0727 18.2702 22.0657C18.5724 20.7197 19.5562 19.6869 20.1714 19.1525C20.4729 18.8908 20.8639 18.7576 21.2624 18.7793L22.5315 18.8485C22.7814 18.8622 23.0018 19.0165 23.1003 19.2466L24.949 23.5721C25.0478 23.8033 25.0061 24.0704 24.8418 24.2605L23.2326 26.1221C23.1021 26.273 23.0794 26.4881 23.1713 26.6651C25.2907 30.7477 29.1533 32.3654 30.3064 32.7706C30.5029 32.8397 30.7206 32.7745 30.8479 32.6094L32.5318 30.4266C32.719 30.1838 33.0492 30.1027 33.3277 30.2311L37.6168 32.2081C37.8963 32.337 38.0491 32.6422 37.9847 32.943Z" fill="white"/>
<path d="M7 0C3.13401 0 0 3.13401 0 7V49C0 52.866 3.13401 56 7 56H49C52.866 56 56 52.866 56 49V7C56 3.13401 52.866 0 49 0H7ZM28.0253 47.512C25.3196 47.512 22.6592 46.9543 20.2058 45.8845C19.0608 45.3851 17.7883 45.1923 16.5785 45.5037L16.2861 45.579C12.7942 46.4779 9.64162 43.2536 10.6189 39.7828C10.9643 38.556 10.768 37.253 10.2372 36.0943C9.07344 33.554 8.46689 30.7842 8.46689 27.9536C8.46689 17.1691 17.2407 8.39525 28.0253 8.39525C38.8098 8.39525 47.5835 17.1691 47.5835 27.9536C47.5835 38.7381 38.8098 47.512 28.0253 47.512Z" fill="white"/>
</svg>
